<svg width="24" height="24" viewBox="0 0 24 24" fill="none" xmlns="http://www.w3.org/2000/svg">
<path d="M0 12.0004C0 5.373 5.37258 0.000244141 12 0.000244141V0.000244141C18.6274 0.000244141 24 5.373 24 12.0004V12.0004C24 18.6278 18.6274 24.0006 12 24.0006V24.0006C5.37258 24.0006 0 18.6278 0 12.0004V12.0004Z" fill="#FEFEFE"/>
<path d="M17.6442 14.5455C17.6442 14.738 17.6307 14.9296 17.6037 15.1179C18.3938 13.9869 18.8501 12.626 18.898 11.2333C18.898 11.2226 18.8948 11.212 18.8876 11.2045C18.8803 11.1971 18.8709 11.1928 18.8605 11.1928H15.8988C15.8936 11.1928 15.8895 11.1939 15.8853 11.196C16.9446 11.9164 17.6442 13.1485 17.6442 14.5455Z" fill="#0D99C6"/>
<path d="M15.0557 10.7662H15.405C15.4154 10.7662 15.4248 10.7619 15.4321 10.7545C15.4393 10.747 15.4435 10.7375 15.4435 10.7268C15.431 9.58196 15.2668 8.44349 14.9559 7.34333C14.9507 7.32311 14.9299 7.31141 14.9102 7.31567C14.0214 7.52314 13.1086 7.63486 12.1969 7.64657C12.1761 7.64657 12.1595 7.66465 12.1595 7.68593V10.7268C12.1595 10.7481 12.1761 10.7662 12.198 10.7662H12.3768C12.7947 10.6108 13.2469 10.5247 13.7168 10.5247C14.1867 10.5247 14.6368 10.6098 15.0557 10.7662Z" fill="#0D99C6"/>
<path d="M12.1959 7.33793V7.33793C13.0618 7.32516 13.9278 7.22089 14.7709 7.02725C14.7813 7.02512 14.7906 7.01767 14.7958 7.0081C14.801 6.99852 14.8021 6.98682 14.7979 6.97618C14.1908 5.23655 13.2438 4.15235 12.2021 4.0002C12.1917 3.99914 12.1803 4.00233 12.172 4.00978C12.1637 4.01722 12.1585 4.02786 12.1585 4.03957V7.29856C12.1585 7.3092 12.1626 7.31878 12.1699 7.32623C12.1761 7.33368 12.1865 7.33793 12.1959 7.33793Z" fill="#0D99C6"/>
<path d="M15.3666 7.20927C15.3614 7.21884 15.3603 7.22948 15.3634 7.23906C15.6826 8.37327 15.85 9.54685 15.8604 10.7268C15.8604 10.7481 15.878 10.7651 15.8988 10.7651H18.8605C18.8709 10.7651 18.8813 10.7609 18.8876 10.7534C18.8948 10.746 18.899 10.7353 18.898 10.7247C18.8439 9.16381 18.2773 7.64231 17.3033 6.44C17.2918 6.42511 17.271 6.42191 17.2555 6.43043C16.665 6.75707 16.0371 7.01349 15.3894 7.19011C15.3801 7.19331 15.3718 7.19969 15.3666 7.20927Z" fill="#0D99C6"/>
<path d="M15.2096 6.76026C15.2148 6.77729 15.2293 6.78793 15.246 6.78793C15.2491 6.78793 15.2522 6.78793 15.2553 6.78686C15.8448 6.62833 16.4165 6.40276 16.9581 6.11655C16.9685 6.11123 16.9768 6.10059 16.9789 6.08782C16.981 6.07505 16.9768 6.06335 16.9685 6.05377L16.9477 6.03037C16.9197 6.00058 16.8895 5.97078 16.8604 5.94206L16.8064 5.88779C16.7669 5.84842 16.7284 5.80799 16.6878 5.76969C16.6629 5.74628 16.6379 5.72287 16.612 5.69947C16.5953 5.68457 16.5787 5.66967 16.5621 5.65371L16.5517 5.64414C16.507 5.60371 16.4623 5.56221 16.4165 5.52391C16.3781 5.49092 16.3396 5.459 16.3001 5.42709L16.2855 5.41538C16.2356 5.37389 16.1847 5.33345 16.1338 5.29409C16.0891 5.25897 16.0433 5.22599 15.9976 5.19301C15.9456 5.1547 15.8936 5.1164 15.8406 5.08022C15.7938 5.04831 15.747 5.01639 15.7003 4.98659C15.6462 4.95148 15.5932 4.91637 15.5381 4.88339C15.4903 4.8536 15.4414 4.82487 15.3936 4.7972C15.3385 4.76422 15.2824 4.73336 15.2252 4.70145C15.2002 4.68868 15.1763 4.67591 15.1514 4.66314C15.1264 4.64931 15.1015 4.63654 15.0765 4.62377C15.0193 4.59398 14.9611 4.56525 14.9029 4.53759C14.853 4.51312 14.8021 4.48971 14.7511 4.4663C14.7116 4.44822 14.6732 4.43226 14.6337 4.41523L14.5734 4.3897C14.5224 4.36842 14.4715 4.34714 14.4195 4.32692C14.3592 4.30351 14.2979 4.28117 14.2365 4.25989C14.1846 4.2418 14.1336 4.22265 14.0806 4.20563C14.0182 4.18541 13.9559 4.16626 13.8925 4.14711L13.8852 4.14498C13.8363 4.13008 13.7864 4.11519 13.7376 4.10242C13.7261 4.09923 13.7147 4.09604 13.7022 4.09391L13.6762 4.08752C13.6596 4.08327 13.6419 4.09072 13.6336 4.10668C13.6253 4.12157 13.6284 4.14072 13.6409 4.15349C14.3644 4.87275 14.9071 5.77395 15.2096 6.76026Z" fill="#0D99C6"/>
<path d="M5.03846 10.7662H8.00019C8.02098 10.7662 8.03865 10.7492 8.03865 10.7279C8.05009 9.54791 8.21746 8.37433 8.53557 7.24012C8.53868 7.22948 8.53765 7.21884 8.53245 7.21033C8.52725 7.20075 8.51893 7.19437 8.50854 7.19224C7.85985 7.01562 7.23195 6.7592 6.64252 6.43255C6.62692 6.42404 6.60613 6.42723 6.5947 6.44213C5.62062 7.64231 5.05406 9.16381 5 10.7247C5 10.7353 5.00312 10.746 5.0104 10.7534C5.01767 10.7619 5.02807 10.7662 5.03846 10.7662Z" fill="#0D99C6"/>
<path d="M9.80384 14.9157C9.57721 14.954 9.35163 14.9987 9.12708 15.0509C9.11668 15.053 9.10733 15.0604 9.10213 15.07C9.09693 15.0796 9.09589 15.0913 9.10005 15.1019C9.7082 16.8416 10.6552 17.9258 11.6969 18.0779C11.699 18.0779 11.7 18.0779 11.7021 18.0779C11.7114 18.0779 11.7198 18.0747 11.727 18.0683C11.7354 18.0609 11.7406 18.0502 11.7406 18.0385V18.0194C10.6719 17.3799 9.92235 16.2404 9.80384 14.9157Z" fill="#0D99C6"/>
<path d="M11.5493 11.1928H8.49398C8.48359 11.1928 8.47423 11.1971 8.46695 11.2045C8.45968 11.212 8.45552 11.2216 8.45552 11.2322C8.46799 12.3771 8.63225 13.5166 8.94308 14.6157C8.94827 14.6327 8.96283 14.6444 8.97946 14.6444C8.98258 14.6444 8.98466 14.6444 8.98778 14.6434C9.25183 14.5816 9.519 14.5295 9.7872 14.4848C9.808 13.1123 10.5035 11.9036 11.5493 11.1928Z" fill="#0D99C6"/>
<path d="M9.10213 7.0081C9.10733 7.01767 9.11669 7.02512 9.12708 7.02725C9.97017 7.22089 10.8361 7.32516 11.7021 7.33793H11.7031C11.7135 7.33793 11.7229 7.33368 11.7302 7.32623C11.7374 7.31878 11.7416 7.3092 11.7416 7.29856V4.03957C11.7416 4.02786 11.7364 4.01722 11.7281 4.00978C11.7198 4.00233 11.7083 3.99914 11.6979 4.0002C10.6542 4.15235 9.7082 5.23655 9.10005 6.97618C9.0959 6.98682 9.09693 6.99852 9.10213 7.0081Z" fill="#0D99C6"/>
<path d="M8.98882 7.3146C8.96906 7.30928 8.94931 7.32205 8.94308 7.34226C8.63225 8.44243 8.46799 9.5809 8.45552 10.7257C8.45552 10.7364 8.45968 10.746 8.46695 10.7534C8.47423 10.7609 8.48359 10.7651 8.49398 10.7651H11.7021C11.7229 10.7651 11.7405 10.7481 11.7405 10.7257V7.68487C11.7405 7.66359 11.7239 7.6455 11.7031 7.6455C10.7914 7.6338 9.87765 7.52208 8.98882 7.3146Z" fill="#0D99C6"/>
<path d="M6.94087 6.23458C7.48145 6.52079 8.05321 6.74529 8.6416 6.90489C8.64472 6.90595 8.64784 6.90595 8.65096 6.90595C8.66759 6.90595 8.68215 6.89531 8.68734 6.87829C8.98986 5.89304 9.53147 4.99184 10.255 4.27258C10.2675 4.25981 10.2706 4.24066 10.2612 4.22577C10.2529 4.20981 10.2353 4.20236 10.2186 4.20661L10.1906 4.21406C10.1802 4.21619 10.1687 4.21938 10.1583 4.22257C10.1178 4.23321 10.0772 4.24598 10.0377 4.25768L10.0024 4.26832C9.94002 4.28641 9.87869 4.30556 9.81527 4.32578C9.7633 4.3428 9.71236 4.36089 9.6583 4.38004L9.64271 4.38536C9.58761 4.40558 9.53251 4.42473 9.47742 4.44601C9.42544 4.46623 9.3745 4.48751 9.32252 4.50879L9.14683 4.58433C9.09589 4.60774 9.04496 4.63114 8.99402 4.65562C8.93684 4.68328 8.87966 4.71094 8.82249 4.74074C8.77259 4.76627 8.72269 4.79287 8.67383 4.82053C8.61769 4.85139 8.5626 4.88225 8.50854 4.91417C8.45864 4.94289 8.40978 4.97162 8.36196 5.00141C8.3131 5.0312 8.26528 5.06206 8.21746 5.09292L8.20187 5.10356C8.15405 5.13441 8.10623 5.16633 8.05945 5.19825C8.00747 5.23443 7.95549 5.27167 7.90351 5.30997C7.85777 5.34402 7.81203 5.377 7.76629 5.41211C7.7351 5.43552 7.70495 5.45999 7.67481 5.48446C7.65505 5.50042 7.63634 5.51638 7.61555 5.53234L7.59476 5.54937C7.55734 5.58022 7.51991 5.61001 7.48457 5.64087C7.44194 5.67705 7.40036 5.71429 7.35982 5.75152L7.30368 5.8026C7.27353 5.83026 7.24235 5.85792 7.21324 5.88665C7.1727 5.92602 7.13215 5.96539 7.09265 6.00582L7.03651 6.06221C7.00844 6.08987 6.98038 6.11754 6.95335 6.14733L6.94399 6.15797C6.94087 6.16222 6.93671 6.16648 6.93256 6.17074C6.92424 6.17925 6.92008 6.19202 6.92216 6.20478C6.9232 6.21755 6.93048 6.22819 6.94087 6.23458Z" fill="#0D99C6"/>
<path d="M8.68942 15.1988C8.68318 15.1785 8.66343 15.1668 8.64264 15.1722C8.05425 15.3307 7.48249 15.5563 6.94191 15.8425C6.93152 15.8478 6.9232 15.8584 6.92112 15.8712C6.91904 15.884 6.9232 15.8957 6.93152 15.9052L6.95231 15.9276C6.98869 15.968 7.02819 16.0074 7.06874 16.0478L7.09785 16.0223L7.07082 16.0499L7.09681 16.0765C7.13423 16.1138 7.17165 16.1521 7.21012 16.1883C7.23507 16.2117 7.26002 16.2351 7.28601 16.2574L7.34318 16.3096C7.38892 16.3511 7.43467 16.3936 7.48249 16.433C7.52511 16.4692 7.56773 16.5043 7.61243 16.5415C7.66233 16.583 7.71223 16.6245 7.76421 16.6639C7.79436 16.6862 7.82346 16.7086 7.85361 16.7309L7.89935 16.7649C7.95133 16.8033 8.00331 16.8416 8.05633 16.8777C8.10311 16.9096 8.14989 16.9405 8.19667 16.9714C8.25073 17.0065 8.30374 17.0416 8.35884 17.0746C8.40666 17.1044 8.45552 17.1331 8.50334 17.1618C8.55844 17.1948 8.61457 17.2257 8.67175 17.2576C8.69566 17.2703 8.72061 17.2831 8.74556 17.2959C8.77051 17.3097 8.79546 17.3225 8.82041 17.3352C8.87758 17.365 8.9358 17.3927 8.99402 17.4214C9.04391 17.4459 9.09381 17.4693 9.14579 17.4917C9.18634 17.5097 9.22584 17.5268 9.26638 17.5438L9.32252 17.5672C9.37346 17.5885 9.4244 17.6098 9.47637 17.63C9.53667 17.6534 9.598 17.6757 9.65934 17.697L9.67077 17.7013C9.71859 17.7183 9.76641 17.7353 9.81527 17.7513C9.87765 17.7715 9.94002 17.7906 10.0034 17.8098L10.0232 17.8162C10.0679 17.83 10.1136 17.8428 10.1583 17.8555C10.1698 17.8587 10.1822 17.8619 10.1937 17.864L10.2197 17.8704C10.2228 17.8715 10.2259 17.8715 10.229 17.8715C10.2425 17.8715 10.255 17.864 10.2623 17.8513C10.2706 17.8353 10.2685 17.8162 10.256 17.8045C9.53355 17.0863 8.9909 16.1851 8.68942 15.1988Z" fill="#0D99C6"/>
<path d="M8.53245 14.7498C8.53765 14.7402 8.53868 14.7295 8.53557 14.72C8.21642 13.5858 8.04905 12.4122 8.03865 11.2322C8.03865 11.2109 8.02098 11.1928 8.00019 11.1928H5.03846C5.02807 11.1928 5.01767 11.1971 5.01144 11.2045C5.00312 11.2131 5 11.2226 5 11.2333C5.05406 12.7941 5.62062 14.3167 6.5947 15.518C6.60197 15.5275 6.61341 15.5318 6.6238 15.5318C6.63004 15.5318 6.63628 15.5307 6.64252 15.5275C7.23299 15.2009 7.86089 14.9445 8.50854 14.7678C8.51893 14.7657 8.52725 14.7583 8.53245 14.7498Z" fill="#0D99C6"/>
<path fill-rule="evenodd" clip-rule="evenodd" d="M18.9353 19.4249C19.0195 19.3387 19.0205 19.1993 18.9363 19.1131L16.669 16.7926C17.1888 16.0669 17.4664 15.1476 17.3624 14.1581C17.1795 12.4036 15.7989 10.9928 14.0836 10.8119C11.7436 10.564 9.78088 12.5717 10.0221 14.9689C10.1988 16.7245 11.5762 18.1364 13.2915 18.3258C14.2583 18.4322 15.1565 18.1481 15.8665 17.6161L18.1328 19.9345C18.217 20.0218 18.3531 20.0218 18.4374 19.9345L18.9353 19.4249ZM11.4798 13.2644C11.2628 13.6486 11.1386 14.0942 11.1386 14.5688C11.1386 14.9427 11.2157 15.2985 11.3545 15.6206C11.7499 16.5414 12.649 17.1845 13.6948 17.1845C15.1061 17.1845 16.2501 16.0136 16.2501 14.5692C16.2501 13.1248 15.1061 11.9539 13.6948 11.9539C13.3606 11.9539 13.0414 12.0196 12.7489 12.139C12.2124 12.3579 11.7655 12.7576 11.4798 13.2644Z" fill="#0D99C6"/>
</svg>
