<svg width="162px" id="Layer_1" data-name="Layer 1" xmlns="http://www.w3.org/2000/svg" viewBox="0 0 499.9 153">
    <defs>
        <style>.cls-1{fill:#c0cad7;}.cls-2{fill:#042d5f;}.cls-3{fill:#92dafa;}.cls-4{fill:#119bd1;}</style>
    </defs>
    <g id="Map_Outline" data-name="Map Outline">
        <path class="cls-1" d="M158.2,220.9a30.76,30.76,0,0,1-.4,5.3,66.1,66.1,0,0,0,12.3-36.1.35.35,0,0,0-.4-.4H141.4A37.48,37.48,0,0,1,158.2,220.9Z" transform="translate(-38 -119.5)"/>
        <path class="cls-1" d="M133.6,185.8h3.3a.35.35,0,0,0,.4-.4,119.22,119.22,0,0,0-4.6-31.4c-.1-.2-.2-.3-.4-.3a124.63,124.63,0,0,1-25.8,3.1.43.43,0,0,0-.4.4v28.3a.43.43,0,0,0,.4.4h1.7a38.52,38.52,0,0,1,12.7-2.2A35.29,35.29,0,0,1,133.6,185.8Z" transform="translate(-38 -119.5)"/>
        <path class="cls-1" d="M106.4,152.9h0a118.85,118.85,0,0,0,24.5-2.9.22.22,0,0,0,.2-.2.19.19,0,0,0,0-.3c-5.8-16.2-14.8-26.2-24.7-27.7a.35.35,0,0,0-.4.4v30.3a.37.37,0,0,0,.1.3C106.3,152.8,106.3,152.9,106.4,152.9Z" transform="translate(-38 -119.5)"/>
        <path class="cls-1" d="M136.6,152.8c0,.1-.1.2,0,.3a122,122,0,0,1,4.7,32.4.43.43,0,0,0,.4.4h28.2a.35.35,0,0,0,.4-.4,66.14,66.14,0,0,0-15.2-39.8.44.44,0,0,0-.5-.1,87.31,87.31,0,0,1-17.7,7.1C136.7,152.6,136.6,152.7,136.6,152.8Z" transform="translate(-38 -119.5)"/>
        <path class="cls-1" d="M135.1,148.6a.32.32,0,0,0,.3.3h.1a85.92,85.92,0,0,0,16.2-6.2c.1-.1.2-.2.2-.3a.37.37,0,0,0-.1-.3l-.2-.2a6,6,0,0,0-.8-.8l-.5-.5-1.1-1.1c-.2-.2-.5-.4-.7-.6s-.3-.3-.5-.4l-.1-.1a12.67,12.67,0,0,0-1.3-1.1c-.4-.3-.7-.6-1.1-.9l-.1-.1c-.5-.4-1-.8-1.4-1.1s-.9-.6-1.3-.9a13,13,0,0,0-1.5-1c-.4-.3-.9-.6-1.3-.9s-1-.7-1.5-1-.9-.5-1.4-.8-1.1-.6-1.6-.9a19206516637533.6,19206516637533.6,0,0,1-1.4-.8c-.5-.3-1.1-.5-1.7-.8a6.11,6.11,0,0,1-1.4-.7c-.4-.2-.7-.3-1.1-.5l-.6-.2-1.5-.6c-.6-.2-1.2-.4-1.7-.6s-1-.3-1.5-.5a12.09,12.09,0,0,0-1.8-.5h-.1c-.5-.1-.9-.3-1.4-.4-.1,0-.2-.1-.3-.1l-.2-.1c-.2,0-.3,0-.4.2a.25.25,0,0,0,.1.4A58.63,58.63,0,0,1,135.1,148.6Z" transform="translate(-38 -119.5)"/>
        <path class="cls-1" d="M38.4,185.8H66.6a.43.43,0,0,0,.4-.4A122,122,0,0,1,71.7,153v-.3c0-.1-.1-.1-.2-.2a75.34,75.34,0,0,1-17.7-7.1c-.2-.1-.3,0-.5.1a66.14,66.14,0,0,0-15.2,39.8.37.37,0,0,0,.1.3C38.2,185.8,38.3,185.8,38.4,185.8Z" transform="translate(-38 -119.5)"/>
        <path class="cls-1" d="M83.7,224.4c-2.2.4-4.3.8-6.4,1.3a.22.22,0,0,0-.2.2.19.19,0,0,0,0,.3c5.8,16.2,14.8,26.2,24.7,27.7h.1c.1,0,.2,0,.2-.1a.37.37,0,0,0,.1-.3v-.2A37.3,37.3,0,0,1,83.7,224.4Z" transform="translate(-38 -119.5)"/>
        <path class="cls-1" d="M100.3,189.8H71.2a.35.35,0,0,0-.4.4,119.22,119.22,0,0,0,4.6,31.4c0,.2.2.3.4.3h.1c2.5-.6,5.1-1.1,7.6-1.5A37.26,37.26,0,0,1,100.3,189.8Z" transform="translate(-38 -119.5)"/>
        <path class="cls-1" d="M77,149.8a.22.22,0,0,0,.2.2,118.85,118.85,0,0,0,24.5,2.9h0a.35.35,0,0,0,.4-.4V122.2a.35.35,0,0,0-.4-.4c-9.9,1.4-18.9,11.5-24.7,27.7Z" transform="translate(-38 -119.5)"/>
        <path class="cls-1" d="M75.9,153.8c-.2,0-.4.1-.4.3a115.23,115.23,0,0,0-4.6,31.4.35.35,0,0,0,.4.4h30.5a.43.43,0,0,0,.4-.4V157.2a.43.43,0,0,0-.4-.4A125.46,125.46,0,0,1,75.9,153.8Z" transform="translate(-38 -119.5)"/>
        <path class="cls-1" d="M56.5,142.6a77.43,77.43,0,0,0,16.2,6.2h.1a.27.27,0,0,0,.3-.3A58,58,0,0,1,88,124.3a.6.6,0,0,0,.1-.4.52.52,0,0,0-.4-.2l-.3.1a.37.37,0,0,0-.3.1l-1.2.3-.3.1c-.6.2-1.2.3-1.8.5s-1,.3-1.5.5l-.2.1c-.5.2-1.1.4-1.6.6l-1.5.6-1.7.7a10.09,10.09,0,0,0-1.5.7c-.5.3-1.1.5-1.6.8s-.9.5-1.4.7-1.1.6-1.6.9-.9.5-1.4.8-.9.6-1.4.9l-.2.1c-.5.3-.9.6-1.4.9s-1,.7-1.5,1-.9.6-1.3.9a5.5,5.5,0,0,0-.9.7c-.2.1-.4.3-.6.4l-.2.2c-.4.3-.7.6-1.1.9s-.8.7-1.2,1l-.5.5c-.3.3-.6.5-.9.8a11.41,11.41,0,0,0-1.1,1.1l-.5.5-.8.8-.1.1-.1.1a.37.37,0,0,0-.1.3C56.3,142.5,56.4,142.6,56.5,142.6Z" transform="translate(-38 -119.5)"/>
        <path class="cls-1" d="M73.1,227c-.1-.2-.2-.3-.4-.2A85.92,85.92,0,0,0,56.5,233c-.1.1-.2.2-.2.3a.37.37,0,0,0,.1.3l.2.2a11.41,11.41,0,0,0,1.1,1.1l.3-.2-.3.3.3.2a10,10,0,0,0,1.1,1c.2.2.5.4.7.6l.5.5a12.67,12.67,0,0,0,1.3,1.1c.4.3.8.7,1.2,1a13.44,13.44,0,0,0,1.4,1.1l.9.6.4.3a13,13,0,0,0,1.5,1c.4.3.9.6,1.3.9a13,13,0,0,1,1.5,1c.5.3.9.5,1.4.8s1.1.6,1.6.9a2.51,2.51,0,0,1,.7.4,2.51,2.51,0,0,1,.7.4c.5.3,1.1.5,1.7.8a6.11,6.11,0,0,1,1.4.7c.4.2.8.3,1.2.5l.5.2,1.5.6c.6.2,1.2.4,1.7.6h.1c.5.2.9.3,1.4.5a12.09,12.09,0,0,0,1.8.5l.2.1c.4.1.9.3,1.3.4.1,0,.2.1.3.1l.2.1h.1c.1,0,.3-.1.3-.2a.25.25,0,0,0-.1-.4A60,60,0,0,1,73.1,227Z" transform="translate(-38 -119.5)"/>
        <path class="cls-1" d="M71.6,222.8c0-.1.1-.2,0-.3a122,122,0,0,1-4.7-32.4.43.43,0,0,0-.4-.4H38.4a.35.35,0,0,0-.4.4,66.14,66.14,0,0,0,15.2,39.8.37.37,0,0,0,.3.1h.2a87.31,87.31,0,0,1,17.7-7.1C71.5,223,71.5,222.9,71.6,222.8Z" transform="translate(-38 -119.5)"/>
        <path class="cls-2" d="M170.1,263.8a1.22,1.22,0,0,1,0,1.6l-4.7,4.7a1.21,1.21,0,0,1-1.6,0L141.6,248l-.7.5a34,34,0,1,1,7.3-7.3l-.5.7Zm-24.9-42.9a24.3,24.3,0,1,0-24.3,24.3A24.33,24.33,0,0,0,145.2,220.9Z" transform="translate(-38 -119.5)"/>
        <path class="cls-3" d="M120.9,196.6a24.3,24.3,0,1,1-24.3,24.3A24.33,24.33,0,0,1,120.9,196.6Z" transform="translate(-38 -119.5)"/>
        <path class="cls-4" d="M208.5,159.5a10,10,0,0,0,4.5-.9,8.34,8.34,0,0,0,3.1-2.4,11.12,11.12,0,0,0,1.8-3.4,14,14,0,0,0,.6-4.1V148h5.2v.7a17.36,17.36,0,0,1-1,6.1,14.61,14.61,0,0,1-2.9,5,14.27,14.27,0,0,1-4.7,3.3,16.74,16.74,0,0,1-6.5,1.2c-4.8,0-8.5-1.5-11.2-4.5s-4-7.4-4-13.1v-9.6c0-5.6,1.3-9.9,4-13s6.4-4.6,11.2-4.6a16.39,16.39,0,0,1,6.5,1.2,12.46,12.46,0,0,1,4.7,3.3,14.61,14.61,0,0,1,2.9,5,17.75,17.75,0,0,1,1,6.1v.7h-5.2v-.7a18.44,18.44,0,0,0-.6-4.1,10.56,10.56,0,0,0-1.8-3.5,8.86,8.86,0,0,0-3-2.4,10,10,0,0,0-4.5-.9,8.6,8.6,0,0,0-7.5,3.6c-1.7,2.4-2.5,5.6-2.5,9.5v8.9c0,4.2.8,7.5,2.5,9.8C202.6,158.4,205.1,159.5,208.5,159.5Z" transform="translate(-38 -119.5)"/>
        <path class="cls-4" d="M232.5,159h10.7V137.3h-9.6v-4.4H248V159h10v4.4H232.5Zm8.8-35.2a3.8,3.8,0,0,1,1.3-3,4.34,4.34,0,0,1,3-1.3,3.8,3.8,0,0,1,3,1.3,4.34,4.34,0,0,1,1.3,3,3.8,3.8,0,0,1-1.3,3,4.34,4.34,0,0,1-3,1.3,4.45,4.45,0,0,1-4.3-4.3Z" transform="translate(-38 -119.5)"/>
        <path class="cls-4" d="M282.8,163.5h-9.5l-10.7-30.6h5.7l9.4,28.3h.7l9.4-28.3h5.7Z" transform="translate(-38 -119.5)"/>
        <path class="cls-4" d="M302.3,159H313V137.3h-9.6v-4.4h14.4V159h10v4.4H302.3Zm8.8-35.2a3.8,3.8,0,0,1,1.3-3,4.34,4.34,0,0,1,3-1.3,3.8,3.8,0,0,1,3,1.3,4.34,4.34,0,0,1,1.3,3,3.8,3.8,0,0,1-1.3,3,4.34,4.34,0,0,1-3,1.3,4.45,4.45,0,0,1-4.3-4.3Z" transform="translate(-38 -119.5)"/>
        <path class="cls-4" d="M366.2,152.6a15.57,15.57,0,0,1-1.7,4.7,13.55,13.55,0,0,1-3,3.7,12.91,12.91,0,0,1-4.3,2.4,15.86,15.86,0,0,1-5.5.9,17.75,17.75,0,0,1-6.1-1,14.83,14.83,0,0,1-5-3,14.35,14.35,0,0,1-3.4-4.9,17,17,0,0,1-1.3-6.7V148a16,16,0,0,1,1.3-6.7,14.77,14.77,0,0,1,3.4-5,13.6,13.6,0,0,1,5-3.1,17.39,17.39,0,0,1,6.1-1.1,16.11,16.11,0,0,1,5.4.9,15,15,0,0,1,4.3,2.4,12.25,12.25,0,0,1,3.1,3.7,14.52,14.52,0,0,1,1.6,4.7l-4.8,1.1a8.51,8.51,0,0,0-.9-3.1,8.32,8.32,0,0,0-1.9-2.6,7.89,7.89,0,0,0-2.9-1.8,10.19,10.19,0,0,0-4-.7,11.62,11.62,0,0,0-4.2.8,11.34,11.34,0,0,0-3.4,2.3,9.67,9.67,0,0,0-2.3,3.6,11.42,11.42,0,0,0-.8,4.6v.7a14,14,0,0,0,.8,4.7,10.65,10.65,0,0,0,2.3,3.5,11.05,11.05,0,0,0,3.4,2.2,11.76,11.76,0,0,0,4.3.8,10.19,10.19,0,0,0,4-.7,11.88,11.88,0,0,0,2.9-1.8,9.66,9.66,0,0,0,1.9-2.6,11.24,11.24,0,0,0,1-3.1Z" transform="translate(-38 -119.5)"/>
        <path class="cls-4" d="M396,120.4h30.3v4.8H413.7v38.3h-5.2V125.2H396Z" transform="translate(-38 -119.5)"/>
        <path class="cls-4" d="M433.2,149.7A10.93,10.93,0,0,0,436,157a10,10,0,0,0,7.4,2.8,14.57,14.57,0,0,0,3.8-.5,6.91,6.91,0,0,0,2.7-1.4,5.67,5.67,0,0,0,1.8-2,8.56,8.56,0,0,0,1.1-2.4l4.6,1.2a14,14,0,0,1-4.8,6.9c-2.3,1.8-5.5,2.7-9.4,2.7a16.43,16.43,0,0,1-6-1.1,14,14,0,0,1-4.7-3.2,16.88,16.88,0,0,1-3.1-5,18.68,18.68,0,0,1-1.1-6.4v-1.5a17.25,17.25,0,0,1,1.1-6,15.52,15.52,0,0,1,3.2-4.8,14.18,14.18,0,0,1,4.8-3.1,16.06,16.06,0,0,1,12.4.3,15.69,15.69,0,0,1,4.5,3.4,14.19,14.19,0,0,1,2.6,4.4,12.47,12.47,0,0,1,.8,4.4v3.9H433.2Zm10.2-13.1a11.64,11.64,0,0,0-3.8.6,8.72,8.72,0,0,0-3.1,1.8,11.33,11.33,0,0,0-2.2,2.7,9.71,9.71,0,0,0-1.1,3.4H453a8.79,8.79,0,0,0-1-3.6,8.42,8.42,0,0,0-2.2-2.7,11.09,11.09,0,0,0-3-1.7A12.13,12.13,0,0,0,443.4,136.6Z" transform="translate(-38 -119.5)"/>
        <path class="cls-4" d="M496.8,152.6a15.57,15.57,0,0,1-1.7,4.7,13.55,13.55,0,0,1-3,3.7,12.91,12.91,0,0,1-4.3,2.4,15.86,15.86,0,0,1-5.5.9,17.75,17.75,0,0,1-6.1-1,14.83,14.83,0,0,1-5-3,14.35,14.35,0,0,1-3.4-4.9,17,17,0,0,1-1.3-6.7V148a16,16,0,0,1,1.3-6.7,14.77,14.77,0,0,1,3.4-5,13.6,13.6,0,0,1,5-3.1,17.39,17.39,0,0,1,6.1-1.1,16.11,16.11,0,0,1,5.4.9,15,15,0,0,1,4.3,2.4,12.25,12.25,0,0,1,3.1,3.7,14.52,14.52,0,0,1,1.6,4.7l-4.8,1.1a8.51,8.51,0,0,0-.9-3.1,8.32,8.32,0,0,0-1.9-2.6,7.89,7.89,0,0,0-2.9-1.8,10.19,10.19,0,0,0-4-.7,11.62,11.62,0,0,0-4.2.8,11.34,11.34,0,0,0-3.4,2.3,9.67,9.67,0,0,0-2.3,3.6,11.42,11.42,0,0,0-.8,4.6v.7a14,14,0,0,0,.8,4.7,10.65,10.65,0,0,0,2.3,3.5,11.05,11.05,0,0,0,3.4,2.2,11.76,11.76,0,0,0,4.3.8,10.19,10.19,0,0,0,4-.7,11.88,11.88,0,0,0,2.9-1.8,9.66,9.66,0,0,0,1.9-2.6,11.24,11.24,0,0,0,1-3.1Z" transform="translate(-38 -119.5)"/>
        <path class="cls-4" d="M511.3,163.5h-4.8V120.4h4.8v18.1h.7a10.7,10.7,0,0,1,10.3-6.4,10.7,10.7,0,0,1,8.1,3.3c2.1,2.2,3.1,5.5,3.1,9.9v18.2h-4.8V146.3c0-3.2-.7-5.6-2.2-7.2a7.47,7.47,0,0,0-5.9-2.4,8.59,8.59,0,0,0-6.9,3,12,12,0,0,0-2.5,8v15.8Z" transform="translate(-38 -119.5)"/>
        <path class="cls-2" d="M221.1,271.2H198.8V185.7h22.3Z" transform="translate(-38 -119.5)"/>
        <path class="cls-2" d="M296.5,211.1c4.1,4,6.1,9.6,6.1,17v43.2h-22V234.2c0-4.4-.8-7.5-2.4-9.4a8.41,8.41,0,0,0-6.8-2.8,10.38,10.38,0,0,0-8.4,3.7c-2.2,2.5-3.2,6.2-3.2,11.3v34.2h-22V206.4h19.7l.6,12.4a22.45,22.45,0,0,1,8.8-10.3,25.08,25.08,0,0,1,13.3-3.4C287,205.1,292.5,207.1,296.5,211.1Z" transform="translate(-38 -119.5)"/><path class="cls-2" d="M383,185.9v85.3H363.2l-.8-12.3a22.37,22.37,0,0,1-21.2,13.6c-8.4,0-14.9-2.9-19.6-8.8s-7.1-14.1-7.1-24.6c0-10.7,2.4-19.1,7.1-25s11.3-8.9,19.7-8.9a21.46,21.46,0,0,1,11.8,3.2,22.54,22.54,0,0,1,7.8,8.9V185.9Zm-25.5,66.6q3.15-3.75,3.6-11.1v-5.2c-.3-4.8-1.4-8.4-3.6-11a11.39,11.39,0,0,0-17.5.4c-2.1,2.9-3.2,7.3-3.2,13.2s1.1,10.4,3.2,13.2a10.4,10.4,0,0,0,9,4.3A10.8,10.8,0,0,0,357.5,252.5Z" transform="translate(-38 -119.5)"/>
        <path class="cls-2" d="M460.5,245.2H416.3c.7,4.1,2.2,7,4.5,8.9a13.79,13.79,0,0,0,9.1,2.9,15,15,0,0,0,7.8-1.8,9.12,9.12,0,0,0,4.1-5.3l17.9,5.7a21.58,21.58,0,0,1-10.6,12.6c-5.2,2.9-11.6,4.3-19.2,4.3-11.3,0-20-2.9-26-8.8s-9-14.2-9-24.9,2.9-19,8.8-24.9,14.2-8.8,25-8.8c10.5,0,18.5,2.9,24,8.6s8.4,13.8,8.4,24.2A30.64,30.64,0,0,1,460.5,245.2Zm-44.3-12h24.4c-1-8.5-5-12.7-11.9-12.7C421.6,220.5,417.5,224.8,416.2,233.2Z" transform="translate(-38 -119.5)"/>
        <path class="cls-2" d="M513.1,271.2l-12.7-22.6-13,22.6H463l23.3-32.8-22.4-32h25L500.8,228,513,206.4h24.4l-22.6,32.1,23.1,32.7Z" transform="translate(-38 -119.5)"/>
    </g>
</svg>