<svg width="42" height="42" viewBox="0 0 42 42" fill="none" xmlns="http://www.w3.org/2000/svg">
<path d="M0 21.0003C0 9.40232 9.40202 0 21 0V0C32.598 0 42 9.40232 42 21.0003V21.0003C42 32.5983 32.598 42.0006 21 42.0006V42.0006C9.40202 42.0006 0 32.5983 0 21.0003V21.0003Z" fill="#FEFEFE"/>
<path d="M31.1274 25.4546C31.1274 25.7916 31.1038 26.1267 31.0565 26.4563C32.4391 24.477 33.2378 22.0956 33.3214 19.6582C33.3214 19.6396 33.316 19.621 33.3032 19.608C33.2905 19.5949 33.2741 19.5875 33.2559 19.5875H28.0729C28.0638 19.5875 28.0566 19.5893 28.0493 19.5931C29.9031 20.8536 31.1274 23.0098 31.1274 25.4546Z" fill="#0D99C6"/>
<path d="M26.5975 18.8408H27.2088C27.227 18.8408 27.2434 18.8334 27.2561 18.8203C27.2688 18.8073 27.2761 18.7905 27.2761 18.7719C27.2543 16.7684 26.9668 14.7761 26.4229 12.8508C26.4138 12.8154 26.3774 12.795 26.3428 12.8024C24.7874 13.1655 23.1901 13.361 21.5946 13.3815C21.5582 13.3815 21.5291 13.4131 21.5291 13.4504V18.7719C21.5291 18.8092 21.5582 18.8408 21.5964 18.8408H21.9093C22.6407 18.569 23.432 18.4181 24.2543 18.4181C25.0766 18.4181 25.8644 18.5671 26.5975 18.8408Z" fill="#0D99C6"/>
<path d="M21.5928 12.8414V12.8414C23.1082 12.819 24.6236 12.6366 26.099 12.2977C26.1172 12.294 26.1336 12.2809 26.1427 12.2642C26.1518 12.2474 26.1536 12.2269 26.1463 12.2083C25.0839 9.16397 23.4266 7.26661 21.6037 7.00035C21.5855 6.99849 21.5655 7.00407 21.5509 7.01711C21.5364 7.03014 21.5273 7.04876 21.5273 7.06924V12.7725C21.5273 12.7911 21.5346 12.8079 21.5473 12.8209C21.5582 12.8339 21.5764 12.8414 21.5928 12.8414Z" fill="#0D99C6"/>
<path d="M27.1415 12.6162C27.1324 12.633 27.1306 12.6516 27.136 12.6684C27.6945 14.6532 27.9874 16.707 28.0056 18.7719C28.0056 18.8092 28.0365 18.839 28.0729 18.839H33.2559C33.2741 18.839 33.2923 18.8315 33.3032 18.8185C33.316 18.8054 33.3233 18.7868 33.3214 18.7682C33.2268 16.0367 32.2354 13.374 30.5307 11.27C30.5107 11.2439 30.4743 11.2384 30.447 11.2532C29.4137 11.8249 28.3149 12.2736 27.1815 12.5827C27.1651 12.5883 27.1506 12.5995 27.1415 12.6162Z" fill="#0D99C6"/>
<path d="M26.8668 11.8305C26.8759 11.8603 26.9013 11.8789 26.9304 11.8789C26.9359 11.8789 26.9414 11.8789 26.9468 11.877C27.9783 11.5996 28.9789 11.2048 29.9267 10.704C29.9449 10.6947 29.9595 10.676 29.9631 10.6537C29.9668 10.6313 29.9595 10.6109 29.9449 10.5941L29.9085 10.5531C29.8594 10.501 29.8067 10.4489 29.7557 10.3986L29.6611 10.3036C29.592 10.2347 29.5247 10.164 29.4537 10.097C29.4101 10.056 29.3664 10.015 29.3209 9.97407C29.2918 9.948 29.2627 9.92193 29.2336 9.894L29.2154 9.87724C29.1372 9.80649 29.059 9.73387 28.9789 9.66684C28.9116 9.60912 28.8443 9.55326 28.7752 9.4974L28.7497 9.47692C28.6624 9.4043 28.5732 9.33354 28.4841 9.26465C28.4059 9.20321 28.3258 9.14548 28.2458 9.08776C28.1548 9.02073 28.0638 8.9537 27.9711 8.89039C27.8892 8.83453 27.8073 8.77867 27.7255 8.72654C27.6309 8.66509 27.5381 8.60365 27.4417 8.54593C27.358 8.49379 27.2725 8.44352 27.1888 8.39511C27.0924 8.33739 26.9941 8.28339 26.8941 8.22753C26.8504 8.20519 26.8086 8.18284 26.7649 8.1605C26.7212 8.13629 26.6776 8.11395 26.6339 8.0916C26.5339 8.03947 26.432 7.9892 26.3301 7.94078C26.2428 7.89796 26.1536 7.85699 26.0645 7.81603C25.9954 7.78438 25.928 7.75645 25.8589 7.72666L25.7534 7.68197C25.6643 7.64473 25.5751 7.60749 25.4841 7.57211C25.3786 7.53115 25.2713 7.49205 25.164 7.45481C25.073 7.42315 24.9839 7.38964 24.8911 7.35985C24.7819 7.32447 24.6728 7.29095 24.5618 7.25744L24.5491 7.25371C24.4636 7.22765 24.3762 7.20158 24.2907 7.17923C24.2707 7.17365 24.2507 7.16806 24.2289 7.16434L24.1834 7.15317C24.1543 7.14572 24.1234 7.15875 24.1088 7.18668C24.0942 7.21275 24.0997 7.24627 24.1215 7.26861C25.3877 8.52731 26.3374 10.1044 26.8668 11.8305Z" fill="#0D99C6"/>
<path d="M9.06731 18.8408H14.2503C14.2867 18.8408 14.3176 18.811 14.3176 18.7738C14.3377 16.7088 14.6306 14.6551 15.1872 12.6702C15.1927 12.6516 15.1909 12.633 15.1818 12.6181C15.1727 12.6013 15.1581 12.5901 15.1399 12.5864C14.0047 12.2773 12.9059 11.8286 11.8744 11.257C11.8471 11.2421 11.8107 11.2477 11.7907 11.2737C10.0861 13.374 9.0946 16.0367 9 18.7682C9 18.7868 9.00546 18.8054 9.01819 18.8185C9.03093 18.8334 9.04912 18.8408 9.06731 18.8408Z" fill="#0D99C6"/>
<path d="M17.4067 26.1025C17.0101 26.1696 16.6153 26.2478 16.2224 26.339C16.2042 26.3427 16.1878 26.3558 16.1787 26.3725C16.1696 26.3893 16.1678 26.4098 16.1751 26.4284C17.2393 29.4727 18.8967 31.3701 20.7196 31.6363C20.7232 31.6363 20.725 31.6363 20.7287 31.6363C20.745 31.6363 20.7596 31.6308 20.7723 31.6196C20.7869 31.6065 20.796 31.5879 20.796 31.5674V31.5339C18.9258 30.4149 17.6141 28.4207 17.4067 26.1025Z" fill="#0D99C6"/>
<path d="M20.4612 19.5875H15.1145C15.0963 19.5875 15.0799 19.5949 15.0672 19.608C15.0544 19.621 15.0472 19.6377 15.0472 19.6564C15.069 21.6599 15.3564 23.654 15.9004 25.5775C15.9095 25.6073 15.9349 25.6277 15.9641 25.6277C15.9695 25.6277 15.9732 25.6277 15.9786 25.6259C16.4407 25.5179 16.9082 25.4266 17.3776 25.3484C17.414 22.9465 18.6311 20.8313 20.4612 19.5875Z" fill="#0D99C6"/>
<path d="M16.1787 12.2642C16.1878 12.2809 16.2042 12.294 16.2224 12.2977C17.6978 12.6366 19.2132 12.819 20.7287 12.8414H20.7305C20.7487 12.8414 20.765 12.8339 20.7778 12.8209C20.7905 12.8079 20.7978 12.7911 20.7978 12.7725V7.06924C20.7978 7.04876 20.7887 7.03014 20.7741 7.01711C20.7596 7.00407 20.7396 6.99849 20.7214 7.00035C18.8949 7.26661 17.2394 9.16397 16.1751 12.2083C16.1678 12.2269 16.1696 12.2474 16.1787 12.2642Z" fill="#0D99C6"/>
<path d="M15.9804 12.8006C15.9459 12.7912 15.9113 12.8136 15.9004 12.849C15.3564 14.7743 15.069 16.7666 15.0472 18.7701C15.0472 18.7887 15.0544 18.8054 15.0672 18.8185C15.0799 18.8315 15.0963 18.839 15.1145 18.839H20.7287C20.765 18.839 20.796 18.8092 20.796 18.7701V13.4485C20.796 13.4113 20.7669 13.3796 20.7305 13.3796C19.135 13.3591 17.5359 13.1636 15.9804 12.8006Z" fill="#0D99C6"/>
<path d="M12.3965 10.9105C13.3425 11.4114 14.3431 11.8043 15.3728 12.0836C15.3783 12.0854 15.3837 12.0854 15.3892 12.0854C15.4183 12.0854 15.4438 12.0668 15.4529 12.037C15.9823 10.3128 16.9301 8.73571 18.1963 7.47702C18.2181 7.45467 18.2236 7.42116 18.2072 7.39509C18.1926 7.36716 18.1617 7.35413 18.1326 7.36157L18.0835 7.37461C18.0653 7.37833 18.0453 7.38392 18.0271 7.3895C17.9561 7.40812 17.8852 7.43047 17.816 7.45095L17.7542 7.46957C17.645 7.50122 17.5377 7.53474 17.4267 7.57012C17.3358 7.59991 17.2466 7.63156 17.152 7.66508L17.1247 7.67439C17.0283 7.70976 16.9319 7.74328 16.8355 7.78052C16.7445 7.8159 16.6554 7.85314 16.5644 7.89038L16.257 8.02258C16.1678 8.06354 16.0787 8.1045 15.9895 8.14733C15.8895 8.19574 15.7894 8.24415 15.6894 8.29629C15.602 8.34097 15.5147 8.38752 15.4292 8.43594C15.331 8.48993 15.2345 8.54393 15.1399 8.59979C15.0526 8.65006 14.9671 8.70034 14.8834 8.75247C14.7979 8.80461 14.7142 8.85861 14.6306 8.9126L14.6033 8.93122C14.5196 8.98522 14.4359 9.04108 14.354 9.09694C14.2631 9.16025 14.1721 9.22542 14.0811 9.29245C14.0011 9.35203 13.9211 9.40975 13.841 9.4712C13.7864 9.51216 13.7337 9.55499 13.6809 9.59781C13.6463 9.62574 13.6136 9.65367 13.5772 9.6816L13.5408 9.71139C13.4753 9.76539 13.4098 9.81752 13.348 9.87152C13.2734 9.93483 13.2006 10 13.1297 10.0652L13.0314 10.1545C12.9787 10.203 12.9241 10.2514 12.8732 10.3016C12.8022 10.3705 12.7313 10.4394 12.6621 10.5102L12.5639 10.6089C12.5148 10.6573 12.4657 10.7057 12.4184 10.7578L12.402 10.7764C12.3965 10.7839 12.3892 10.7913 12.382 10.7988C12.3674 10.8137 12.3601 10.836 12.3638 10.8584C12.3656 10.8807 12.3783 10.8993 12.3965 10.9105Z" fill="#0D99C6"/>
<path d="M15.4565 26.5978C15.4456 26.5624 15.411 26.542 15.3746 26.5513C14.3449 26.8287 13.3443 27.2234 12.3983 27.7243C12.3802 27.7336 12.3656 27.7522 12.362 27.7746C12.3583 27.7969 12.3656 27.8174 12.3802 27.8342L12.4165 27.8733C12.4802 27.944 12.5493 28.0129 12.6203 28.0837L12.6712 28.039L12.6239 28.0874L12.6694 28.134C12.7349 28.1991 12.8004 28.2662 12.8677 28.3295C12.9114 28.3704 12.955 28.4114 13.0005 28.4505L13.1006 28.5417C13.1806 28.6143 13.2607 28.6888 13.3443 28.7577C13.4189 28.821 13.4935 28.8825 13.5718 28.9476C13.6591 29.0203 13.7464 29.0929 13.8374 29.1618C13.8901 29.2009 13.9411 29.24 13.9938 29.2791L14.0739 29.3387C14.1648 29.4057 14.2558 29.4727 14.3486 29.536C14.4304 29.5919 14.5123 29.6459 14.5942 29.6999C14.6888 29.7613 14.7816 29.8228 14.878 29.8805C14.9617 29.9326 15.0472 29.9829 15.1308 30.0332C15.2273 30.0909 15.3255 30.1449 15.4256 30.2008C15.4674 30.2231 15.5111 30.2454 15.5547 30.2678C15.5984 30.292 15.6421 30.3143 15.6857 30.3367C15.7858 30.3888 15.8876 30.4372 15.9895 30.4875C16.0769 30.5303 16.1642 30.5713 16.2551 30.6104C16.3261 30.642 16.3952 30.6718 16.4662 30.7016L16.5644 30.7426C16.6536 30.7798 16.7427 30.8171 16.8337 30.8524C16.9392 30.8934 17.0465 30.9325 17.1538 30.9698L17.1739 30.9772C17.2575 31.007 17.3412 31.0368 17.4267 31.0647C17.5359 31.1001 17.645 31.1336 17.756 31.1671L17.7906 31.1783C17.8688 31.2025 17.9489 31.2248 18.0271 31.2472C18.0471 31.2528 18.0689 31.2584 18.0889 31.2621L18.1344 31.2733C18.1399 31.2751 18.1453 31.2751 18.1508 31.2751C18.1744 31.2751 18.1963 31.2621 18.209 31.2397C18.2236 31.2118 18.2199 31.1783 18.1981 31.1578C16.9337 29.901 15.9841 28.3239 15.4565 26.5978Z" fill="#0D99C6"/>
<path d="M15.1818 25.8121C15.1909 25.7953 15.1927 25.7767 15.1872 25.7599C14.6287 23.7751 14.3358 21.7213 14.3176 19.6564C14.3176 19.6191 14.2867 19.5875 14.2503 19.5875H9.06731C9.04912 19.5875 9.03093 19.5949 9.02001 19.608C9.00546 19.6228 9 19.6396 9 19.6582C9.0946 22.3898 10.0861 25.0542 11.7907 27.1564C11.8035 27.1732 11.8235 27.1806 11.8417 27.1806C11.8526 27.1806 11.8635 27.1788 11.8744 27.1732C12.9077 26.6015 14.0066 26.1528 15.1399 25.8437C15.1581 25.84 15.1727 25.827 15.1818 25.8121Z" fill="#0D99C6"/>
<path fill-rule="evenodd" clip-rule="evenodd" d="M33.3867 33.9935C33.534 33.8427 33.5358 33.5988 33.3885 33.448L29.4207 29.387C30.3303 28.1171 30.8161 26.5084 30.6341 24.7767C30.314 21.7063 27.898 19.2374 24.8963 18.9208C20.8011 18.487 17.3664 22.0005 17.7885 26.1956C18.0978 29.2678 20.5082 31.7387 23.51 32.0701C25.2019 32.2563 26.7737 31.7592 28.0163 30.8282L31.9822 34.8854C32.1296 35.0381 32.3679 35.0381 32.5152 34.8854L33.3867 33.9935ZM20.0827 27.2465C19.8645 26.7073 19.744 26.1161 19.744 25.4961C19.744 23.5386 20.9447 21.8681 22.6335 21.2141C23.1253 21.0236 23.6586 20.9193 24.2157 20.9193C26.6854 20.9193 28.6874 22.9684 28.6874 25.4961C28.6874 28.0238 26.6854 30.0728 24.2157 30.0728C22.3518 30.0728 20.7543 28.9057 20.0827 27.2465Z" fill="#0D99C6"/>
</svg>
