<?xml version="1.0" encoding="utf-8"?>
<!-- Generator: Adobe Illustrator 25.2.3, SVG Export Plug-In . SVG Version: 6.00 Build 0)  -->
<svg version="1.1" xmlns="http://www.w3.org/2000/svg" xmlns:xlink="http://www.w3.org/1999/xlink" width="162px" x="0px" y="0px"
	 viewBox="0 0 600 400" style="enable-background:new 0 0 600 400;" xml:space="preserve">
<style type="text/css">
	.st0{fill:#C0CAD7;}
	.st1{fill:#042D5F;}
	.st2{fill:#92DAFA;}
	.st3{fill:#119BD1;}
</style>
<g id="Map_Outline">
	<g>
		<g>
			<g>
				<path d="M158.2,220.9c0,1.8-0.1,3.6-0.4,5.3c7.5-10.5,11.9-23.2,12.3-36.1c0-0.1,0-0.2-0.1-0.3c-0.1-0.1-0.2-0.1-0.3-0.1h-28.2
					c0,0-0.1,0-0.1,0C151.6,196.5,158.2,208,158.2,220.9z"/>
				<path d="M133.6,185.8h3.3c0.1,0,0.2,0,0.3-0.1s0.1-0.2,0.1-0.3c-0.1-10.6-1.7-21.2-4.6-31.4c-0.1-0.2-0.2-0.3-0.4-0.3
					c-8.5,1.9-17.1,3-25.8,3.1c-0.2,0-0.4,0.2-0.4,0.4v28.3c0,0.2,0.2,0.4,0.4,0.4h1.7c4-1.4,8.3-2.2,12.7-2.2
					C125.4,183.6,129.7,184.4,133.6,185.8z"/>
				<path d="M106.4,152.9C106.4,152.9,106.4,152.9,106.4,152.9c8.2-0.1,16.5-1.1,24.5-2.9c0.1,0,0.2-0.1,0.2-0.2
					c0.1-0.1,0.1-0.2,0-0.3c-5.8-16.2-14.8-26.2-24.7-27.7c-0.1,0-0.2,0-0.3,0.1c-0.1,0.1-0.1,0.2-0.1,0.3v30.3c0,0.1,0,0.2,0.1,0.3
					C106.3,152.8,106.3,152.9,106.4,152.9z"/>
				<path d="M136.6,152.8c0,0.1-0.1,0.2,0,0.3c3,10.5,4.6,21.4,4.7,32.4c0,0.2,0.2,0.4,0.4,0.4h28.2c0.1,0,0.2,0,0.3-0.1
					c0.1-0.1,0.1-0.2,0.1-0.3c-0.5-14.5-5.9-28.6-15.2-39.8c-0.1-0.1-0.3-0.2-0.5-0.1c-5.6,3-11.6,5.4-17.7,7.1
					C136.7,152.6,136.6,152.7,136.6,152.8z"/>
				<path d="M135.1,148.6c0,0.2,0.2,0.3,0.3,0.3c0,0,0.1,0,0.1,0c5.6-1.5,11-3.6,16.2-6.2c0.1-0.1,0.2-0.2,0.2-0.3
					c0-0.1,0-0.2-0.1-0.3l-0.2-0.2c-0.3-0.3-0.5-0.6-0.8-0.8l-0.5-0.5c-0.4-0.4-0.7-0.7-1.1-1.1c-0.2-0.2-0.5-0.4-0.7-0.6
					c-0.2-0.1-0.3-0.3-0.5-0.4l-0.1-0.1c-0.4-0.4-0.9-0.8-1.3-1.1c-0.4-0.3-0.7-0.6-1.1-0.9l-0.1-0.1c-0.5-0.4-1-0.8-1.4-1.1
					c-0.4-0.3-0.9-0.6-1.3-0.9c-0.5-0.4-1-0.7-1.5-1c-0.4-0.3-0.9-0.6-1.3-0.9c-0.5-0.3-1-0.7-1.5-1c-0.5-0.3-0.9-0.5-1.4-0.8
					c-0.5-0.3-1.1-0.6-1.6-0.9c-0.2-0.1-0.5-0.2-0.7-0.4c-0.2-0.1-0.5-0.2-0.7-0.4c-0.5-0.3-1.1-0.5-1.7-0.8c-0.5-0.2-1-0.4-1.4-0.7
					c-0.4-0.2-0.7-0.3-1.1-0.5l-0.6-0.2c-0.5-0.2-1-0.4-1.5-0.6c-0.6-0.2-1.2-0.4-1.7-0.6c-0.5-0.2-1-0.3-1.5-0.5
					c-0.6-0.2-1.2-0.4-1.8-0.5l-0.1,0c-0.5-0.1-0.9-0.3-1.4-0.4c-0.1,0-0.2-0.1-0.3-0.1l-0.2-0.1c-0.2,0-0.3,0-0.4,0.2
					c-0.1,0.1-0.1,0.3,0.1,0.4C127.1,131.1,132.2,139.4,135.1,148.6z"/>
				<path d="M38.4,185.8h28.2c0.2,0,0.4-0.2,0.4-0.4c0.1-11,1.7-21.9,4.7-32.4c0-0.1,0-0.2,0-0.3c0-0.1-0.1-0.1-0.2-0.2
					c-6.2-1.6-12.1-4-17.7-7.1c-0.2-0.1-0.3,0-0.5,0.1c-9.3,11.2-14.7,25.3-15.2,39.8c0,0.1,0,0.2,0.1,0.3
					C38.2,185.8,38.3,185.8,38.4,185.8z"/>
				<path d="M83.7,224.4c-2.2,0.4-4.3,0.8-6.4,1.3c-0.1,0-0.2,0.1-0.2,0.2c-0.1,0.1-0.1,0.2,0,0.3c5.8,16.2,14.8,26.2,24.7,27.7
					c0,0,0,0,0.1,0c0.1,0,0.2,0,0.2-0.1c0.1-0.1,0.1-0.2,0.1-0.3v-0.2C91.9,247.3,84.8,236.7,83.7,224.4z"/>
				<path d="M100.3,189.8H71.2c-0.1,0-0.2,0-0.3,0.1s-0.1,0.2-0.1,0.3c0.1,10.6,1.7,21.2,4.6,31.4c0,0.2,0.2,0.3,0.4,0.3
					c0,0,0.1,0,0.1,0c2.5-0.6,5.1-1.1,7.6-1.5C83.7,207.6,90.3,196.4,100.3,189.8z"/>
				<path d="M77,149.8c0,0.1,0.1,0.2,0.2,0.2c8,1.8,16.3,2.8,24.5,2.9c0,0,0,0,0,0c0.1,0,0.2,0,0.3-0.1c0.1-0.1,0.1-0.2,0.1-0.3
					v-30.3c0-0.1,0-0.2-0.1-0.3c-0.1-0.1-0.2-0.1-0.3-0.1c-9.9,1.4-18.9,11.5-24.7,27.7C77,149.6,77,149.7,77,149.8z"/>
				<path d="M75.9,153.8c-0.2,0-0.4,0.1-0.4,0.3c-3,10.2-4.5,20.8-4.6,31.4c0,0.1,0,0.2,0.1,0.3s0.2,0.1,0.3,0.1h30.5
					c0.2,0,0.4-0.2,0.4-0.4v-28.3c0-0.2-0.2-0.4-0.4-0.4C93.1,156.7,84.4,155.7,75.9,153.8z"/>
				<path d="M56.5,142.6c5.1,2.7,10.6,4.7,16.2,6.2c0,0,0.1,0,0.1,0c0.2,0,0.3-0.1,0.3-0.3c2.9-9.2,8-17.5,14.9-24.2
					c0.1-0.1,0.1-0.3,0.1-0.4c-0.1-0.1-0.2-0.2-0.4-0.2l-0.3,0.1c-0.1,0-0.2,0-0.3,0.1c-0.4,0.1-0.8,0.2-1.2,0.3l-0.3,0.1
					c-0.6,0.2-1.2,0.3-1.8,0.5c-0.5,0.2-1,0.3-1.5,0.5l-0.2,0.1c-0.5,0.2-1.1,0.4-1.6,0.6c-0.5,0.2-1,0.4-1.5,0.6l-1.7,0.7
					c-0.5,0.2-1,0.4-1.5,0.7c-0.5,0.3-1.1,0.5-1.6,0.8c-0.5,0.2-0.9,0.5-1.4,0.7c-0.5,0.3-1.1,0.6-1.6,0.9c-0.5,0.3-0.9,0.5-1.4,0.8
					c-0.5,0.3-0.9,0.6-1.4,0.9l-0.2,0.1c-0.5,0.3-0.9,0.6-1.4,0.9c-0.5,0.3-1,0.7-1.5,1c-0.4,0.3-0.9,0.6-1.3,0.9
					c-0.3,0.2-0.6,0.4-0.9,0.7c-0.2,0.1-0.4,0.3-0.6,0.4l-0.2,0.2c-0.4,0.3-0.7,0.6-1.1,0.9c-0.4,0.3-0.8,0.7-1.2,1l-0.5,0.5
					c-0.3,0.3-0.6,0.5-0.9,0.8c-0.4,0.4-0.8,0.7-1.1,1.1l-0.5,0.5c-0.3,0.3-0.5,0.5-0.8,0.8l-0.1,0.1c0,0-0.1,0.1-0.1,0.1
					c-0.1,0.1-0.1,0.2-0.1,0.3C56.3,142.5,56.4,142.6,56.5,142.6z"/>
				<path d="M73.1,227c-0.1-0.2-0.2-0.3-0.4-0.2c-5.6,1.5-11,3.6-16.2,6.2c-0.1,0.1-0.2,0.2-0.2,0.3c0,0.1,0,0.2,0.1,0.3l0.2,0.2
					c0.3,0.4,0.7,0.7,1.1,1.1l0.3-0.2l-0.3,0.3l0.3,0.2c0.4,0.4,0.7,0.7,1.1,1c0.2,0.2,0.5,0.4,0.7,0.6l0.5,0.5
					c0.4,0.4,0.9,0.8,1.3,1.1c0.4,0.3,0.8,0.7,1.2,1c0.5,0.4,0.9,0.8,1.4,1.1c0.3,0.2,0.6,0.4,0.9,0.6l0.4,0.3c0.5,0.4,1,0.7,1.5,1
					c0.4,0.3,0.9,0.6,1.3,0.9c0.5,0.3,1,0.6,1.5,1c0.5,0.3,0.9,0.5,1.4,0.8c0.5,0.3,1.1,0.6,1.6,0.9c0.2,0.1,0.5,0.2,0.7,0.4
					c0.2,0.1,0.5,0.2,0.7,0.4c0.5,0.3,1.1,0.5,1.7,0.8c0.5,0.2,1,0.4,1.4,0.7c0.4,0.2,0.8,0.3,1.2,0.5l0.5,0.2
					c0.5,0.2,1,0.4,1.5,0.6c0.6,0.2,1.2,0.4,1.7,0.6l0.1,0c0.5,0.2,0.9,0.3,1.4,0.5c0.6,0.2,1.2,0.4,1.8,0.5l0.2,0.1
					c0.4,0.1,0.9,0.3,1.3,0.4c0.1,0,0.2,0.1,0.3,0.1l0.2,0.1c0,0,0.1,0,0.1,0c0.1,0,0.3-0.1,0.3-0.2c0.1-0.1,0.1-0.3-0.1-0.4
					C81.1,244.6,76,236.2,73.1,227z"/>
				<path d="M71.6,222.8c0-0.1,0.1-0.2,0-0.3c-3-10.5-4.6-21.4-4.7-32.4c0-0.2-0.2-0.4-0.4-0.4H38.4c-0.1,0-0.2,0-0.3,0.1
					c-0.1,0.1-0.1,0.2-0.1,0.3c0.5,14.5,5.9,28.6,15.2,39.8c0.1,0.1,0.2,0.1,0.3,0.1c0.1,0,0.1,0,0.2,0c5.6-3,11.6-5.4,17.7-7.1
					C71.5,223,71.5,222.9,71.6,222.8z"/>
			</g>
			<g>
				<g>
					<path d="M170.1,263.8l-22.1-22.1l0.5-0.7c5-6.9,7.3-15.3,6.4-23.8c-1.7-15.9-14.5-28.6-30.3-30.3c-10.3-1.1-20.4,2.5-27.7,9.8
						c-7.3,7.3-10.9,17.4-9.8,27.7c1.6,15.9,14.4,28.6,30.3,30.3c8.5,0.9,16.9-1.4,23.8-6.4l0.7-0.5l22.1,22.1
						c0.4,0.4,1.1,0.4,1.6,0l4.7-4.7c0.2-0.2,0.3-0.5,0.3-0.8C170.4,264.3,170.3,264,170.1,263.8z M120.9,245.2
						c-13.4,0-24.3-10.9-24.3-24.3c0-13.4,10.9-24.3,24.3-24.3c13.4,0,24.3,10.9,24.3,24.3C145.2,234.3,134.3,245.2,120.9,245.2z"/>
				</g>
			</g>
			<g>
				<g>
					<g>
						<g>
							<path d="M208.5,159.5c1.8,0,3.3-0.3,4.5-0.9c1.3-0.6,2.3-1.4,3.1-2.4c0.8-1,1.4-2.2,1.8-3.4c0.4-1.3,0.6-2.7,0.6-4.1V148h5.2
								v0.7c0,2.2-0.3,4.2-1,6.1c-0.7,1.9-1.6,3.6-2.9,5c-1.3,1.4-2.9,2.5-4.7,3.3c-1.9,0.8-4.1,1.2-6.5,1.2
								c-4.8,0-8.5-1.5-11.2-4.5c-2.7-3-4-7.4-4-13.1v-9.6c0-5.6,1.3-9.9,4-13c2.7-3.1,6.4-4.6,11.2-4.6c2.5,0,4.6,0.4,6.5,1.2
								c1.9,0.8,3.5,1.9,4.7,3.3c1.3,1.4,2.2,3.1,2.9,5c0.7,1.9,1,4,1,6.1v0.7h-5.2v-0.7c0-1.4-0.3-2.8-0.6-4.1
								c-0.4-1.3-1-2.5-1.8-3.5c-0.8-1-1.8-1.8-3-2.4c-1.2-0.6-2.7-0.9-4.5-0.9c-3.3,0-5.8,1.2-7.5,3.6c-1.7,2.4-2.5,5.6-2.5,9.5
								v8.9c0,4.2,0.8,7.5,2.5,9.8C202.6,158.4,205.1,159.5,208.5,159.5z"/>
						</g>
					</g>
					<g>
						<g>
							<path d="M232.5,159h10.7v-21.7h-9.6v-4.4h14.4V159h10v4.4h-25.5V159z M241.3,123.8c0-1.2,0.4-2.2,1.3-3
								c0.8-0.8,1.9-1.3,3-1.3c1.2,0,2.2,0.4,3,1.3c0.8,0.8,1.3,1.9,1.3,3c0,1.2-0.4,2.2-1.3,3c-0.8,0.8-1.9,1.3-3,1.3
								c-1.2,0-2.2-0.4-3-1.3C241.7,126,241.3,125,241.3,123.8z"/>
						</g>
					</g>
					<g>
						<g>
							<path d="M282.8,163.5h-9.5l-10.7-30.6h5.7l9.4,28.3h0.7l9.4-28.3h5.7L282.8,163.5z"/>
						</g>
					</g>
					<g>
						<g>
							<path d="M302.3,159h10.7v-21.7h-9.6v-4.4h14.4V159h10v4.4h-25.5V159z M311.1,123.8c0-1.2,0.4-2.2,1.3-3
								c0.8-0.8,1.9-1.3,3-1.3c1.2,0,2.2,0.4,3,1.3c0.8,0.8,1.3,1.9,1.3,3c0,1.2-0.4,2.2-1.3,3c-0.8,0.8-1.9,1.3-3,1.3
								c-1.2,0-2.2-0.4-3-1.3C311.5,126,311.1,125,311.1,123.8z"/>
						</g>
					</g>
					<g>
						<g>
							<path d="M366.2,152.6c-0.3,1.7-0.9,3.2-1.7,4.7c-0.8,1.4-1.8,2.7-3,3.7c-1.2,1-2.7,1.9-4.3,2.4c-1.6,0.6-3.5,0.9-5.5,0.9
								c-2.1,0-4.2-0.3-6.1-1c-1.9-0.7-3.6-1.7-5-3c-1.4-1.3-2.6-3-3.4-4.9c-0.8-1.9-1.3-4.1-1.3-6.7V148c0-2.5,0.4-4.7,1.3-6.7
								c0.8-2,2-3.6,3.4-5c1.4-1.4,3.1-2.4,5-3.1c1.9-0.7,3.9-1.1,6.1-1.1c1.9,0,3.7,0.3,5.4,0.9c1.6,0.6,3.1,1.4,4.3,2.4
								c1.3,1,2.3,2.3,3.1,3.7c0.8,1.4,1.3,3,1.6,4.7l-4.8,1.1c-0.1-1.1-0.4-2.1-0.9-3.1c-0.5-1-1.1-1.9-1.9-2.6
								c-0.8-0.8-1.8-1.4-2.9-1.8c-1.2-0.5-2.5-0.7-4-0.7c-1.5,0-2.9,0.3-4.2,0.8c-1.3,0.6-2.4,1.3-3.4,2.3c-1,1-1.8,2.2-2.3,3.6
								c-0.6,1.4-0.8,2.9-0.8,4.6v0.7c0,1.7,0.3,3.3,0.8,4.7c0.6,1.4,1.3,2.5,2.3,3.5c1,0.9,2.1,1.7,3.4,2.2
								c1.3,0.5,2.7,0.8,4.3,0.8c1.5,0,2.8-0.2,4-0.7c1.1-0.5,2.1-1.1,2.9-1.8c0.8-0.8,1.4-1.6,1.9-2.6c0.5-1,0.8-2,1-3.1
								L366.2,152.6z"/>
						</g>
					</g>
					<g>
						<g>
							<path d="M396,120.4h30.3v4.8h-12.6v38.3h-5.2v-38.3H396V120.4z"/>
						</g>
					</g>
					<g>
						<g>
							<path d="M433.2,149.7c0.1,3,1.1,5.5,2.8,7.3c1.8,1.8,4.2,2.8,7.4,2.8c1.4,0,2.7-0.2,3.8-0.5c1.1-0.3,2-0.8,2.7-1.4
								c0.8-0.6,1.4-1.2,1.8-2c0.5-0.8,0.9-1.6,1.1-2.4l4.6,1.2c-0.9,2.8-2.5,5.1-4.8,6.9c-2.3,1.8-5.5,2.7-9.4,2.7
								c-2.2,0-4.2-0.4-6-1.1c-1.8-0.8-3.4-1.8-4.7-3.2c-1.3-1.4-2.3-3.1-3.1-5c-0.7-1.9-1.1-4.1-1.1-6.4v-1.5c0-2.1,0.4-4.1,1.1-6
								c0.8-1.8,1.8-3.4,3.2-4.8c1.4-1.3,2.9-2.4,4.8-3.1c1.8-0.8,3.8-1.1,5.9-1.1c2.5,0,4.7,0.5,6.5,1.4c1.8,0.9,3.3,2.1,4.5,3.4
								c1.2,1.4,2,2.8,2.6,4.4c0.6,1.6,0.8,3.1,0.8,4.4v3.9H433.2z M443.4,136.6c-1.4,0-2.6,0.2-3.8,0.6s-2.2,1-3.1,1.8
								c-0.9,0.8-1.6,1.7-2.2,2.7c-0.6,1-0.9,2.2-1.1,3.4H453c-0.1-1.3-0.4-2.5-1-3.6c-0.6-1.1-1.3-2-2.2-2.7
								c-0.9-0.7-1.9-1.3-3-1.7C445.8,136.8,444.6,136.6,443.4,136.6z"/>
						</g>
					</g>
					<g>
						<g>
							<path d="M496.8,152.6c-0.3,1.7-0.9,3.2-1.7,4.7c-0.8,1.4-1.8,2.7-3,3.7c-1.2,1-2.7,1.9-4.3,2.4c-1.6,0.6-3.5,0.9-5.5,0.9
								c-2.1,0-4.2-0.3-6.1-1c-1.9-0.7-3.6-1.7-5-3c-1.4-1.3-2.6-3-3.4-4.9c-0.8-1.9-1.3-4.1-1.3-6.7V148c0-2.5,0.4-4.7,1.3-6.7
								c0.8-2,2-3.6,3.4-5c1.4-1.4,3.1-2.4,5-3.1c1.9-0.7,3.9-1.1,6.1-1.1c1.9,0,3.7,0.3,5.4,0.9c1.6,0.6,3.1,1.4,4.3,2.4
								c1.3,1,2.3,2.3,3.1,3.7c0.8,1.4,1.3,3,1.6,4.7l-4.8,1.1c-0.1-1.1-0.4-2.1-0.9-3.1c-0.5-1-1.1-1.9-1.9-2.6
								c-0.8-0.8-1.8-1.4-2.9-1.8c-1.2-0.5-2.5-0.7-4-0.7c-1.5,0-2.9,0.3-4.2,0.8c-1.3,0.6-2.4,1.3-3.4,2.3c-1,1-1.8,2.2-2.3,3.6
								c-0.6,1.4-0.8,2.9-0.8,4.6v0.7c0,1.7,0.3,3.3,0.8,4.7c0.6,1.4,1.3,2.5,2.3,3.5c1,0.9,2.1,1.7,3.4,2.2
								c1.3,0.5,2.7,0.8,4.3,0.8c1.5,0,2.8-0.2,4-0.7c1.1-0.5,2.1-1.1,2.9-1.8c0.8-0.8,1.4-1.6,1.9-2.6c0.5-1,0.8-2,1-3.1
								L496.8,152.6z"/>
						</g>
					</g>
					<g>
						<g>
							<path d="M511.3,163.5h-4.8v-43.1h4.8v18.1h0.7c0.9-2,2.3-3.5,4-4.7c1.7-1.1,3.8-1.7,6.3-1.7c3.3,0,6,1.1,8.1,3.3
								c2.1,2.2,3.1,5.5,3.1,9.9v18.2h-4.8v-17.2c0-3.2-0.7-5.6-2.2-7.2c-1.4-1.6-3.4-2.4-5.9-2.4c-2.9,0-5.2,1-6.9,3
								c-1.7,2-2.5,4.7-2.5,8V163.5z"/>
						</g>
					</g>
					<g>
						<g>
							<path d="M221.1,271.2h-22.3v-85.5h22.3V271.2z"/>
						</g>
					</g>
					<g>
						<g>
							<path d="M296.5,211.1c4.1,4,6.1,9.6,6.1,17v43.2h-22v-37.1c0-4.4-0.8-7.5-2.4-9.4c-1.6-1.9-3.9-2.8-6.8-2.8
								c-3.5,0-6.3,1.2-8.4,3.7c-2.2,2.5-3.2,6.2-3.2,11.3v34.2h-22v-64.8h19.7l0.6,12.4c2.1-4.6,5-8,8.8-10.3
								c3.8-2.3,8.2-3.4,13.3-3.4C287,205.1,292.5,207.1,296.5,211.1z"/>
						</g>
					</g>
					<g>
						<g>
							<path d="M383,185.9v85.3h-19.8l-0.8-12.3c-1.9,4.2-4.7,7.6-8.4,10c-3.7,2.4-7.9,3.6-12.8,3.6c-8.4,0-14.9-2.9-19.6-8.8
								c-4.7-5.9-7.1-14.1-7.1-24.6c0-10.7,2.4-19.1,7.1-25c4.8-6,11.3-8.9,19.7-8.9c4.6,0,8.5,1.1,11.8,3.2
								c3.3,2.2,5.9,5.1,7.8,8.9v-31.4H383z M357.5,252.5c2.1-2.5,3.3-6.2,3.6-11.1v-5.2c-0.3-4.8-1.4-8.4-3.6-11
								c-2.1-2.6-4.9-3.9-8.5-3.9c-3.9,0-6.9,1.4-9,4.3c-2.1,2.9-3.2,7.3-3.2,13.2c0,6,1.1,10.4,3.2,13.2c2.1,2.9,5.1,4.3,9,4.3
								C352.5,256.3,355.3,255,357.5,252.5z"/>
						</g>
					</g>
					<g>
						<g>
							<path d="M460.5,245.2h-44.2c0.7,4.1,2.2,7,4.5,8.9c2.3,1.9,5.3,2.9,9.1,2.9c3.2,0,5.8-0.6,7.8-1.8c2-1.2,3.4-3,4.1-5.3
								l17.9,5.7c-1.8,5.5-5.3,9.7-10.6,12.6c-5.2,2.9-11.6,4.3-19.2,4.3c-11.3,0-20-2.9-26-8.8c-6-5.9-9-14.2-9-24.9
								c0-10.7,2.9-19,8.8-24.9c5.9-5.9,14.2-8.8,25-8.8c10.5,0,18.5,2.9,24,8.6c5.6,5.7,8.4,13.8,8.4,24.2
								C461.2,240.8,460.9,243.3,460.5,245.2z M416.2,233.2h24.4c-1-8.5-5-12.7-11.9-12.7C421.6,220.5,417.5,224.8,416.2,233.2z"/>
						</g>
					</g>
					<g>
						<g>
							<path d="M513.1,271.2l-12.7-22.6l-13,22.6h-24.4l23.3-32.8l-22.4-32h25l11.9,21.6l12.2-21.6h24.4l-22.6,32.1l23.1,32.7H513.1
								z"/>
						</g>
					</g>
				</g>
			</g>
		</g>
	</g>
</g>
<g id="Color_Overlay">
</g>
<g id="Text">
</g>
</svg>
